<svg width="1200" height="800" xmlns="http://www.w3.org/2000/svg">
  <!-- Background -->
  <rect width="1200" height="800" fill="#f8f9fa"/>
  
  <!-- Header -->
  <rect x="0" y="0" width="1200" height="80" fill="#ffffff" stroke="#e9ecef" stroke-width="1"/>
  
  <!-- Title -->
  <text x="40" y="45" font-family="Arial, sans-serif" font-size="24" font-weight="bold" fill="#212529">Dashboard FinThrix - Visão Geral</text>
  
  <!-- Filters -->
  <rect x="800" y="20" width="120" height="40" fill="#f8f9fa" stroke="#ced4da" stroke-width="1" rx="4"/>
  <text x="810" y="43" font-family="Arial, sans-serif" font-size="12" fill="#6c757d">Período ▼</text>
  
  <rect x="940" y="20" width="120" height="40" fill="#f8f9fa" stroke="#ced4da" stroke-width="1" rx="4"/>
  <text x="950" y="43" font-family="Arial, sans-serif" font-size="12" fill="#6c757d">Tipo ▼</text>
  
  <rect x="1080" y="20" width="100" height="40" fill="#f8f9fa" stroke="#ced4da" stroke-width="1" rx="4"/>
  <text x="1090" y="43" font-family="Arial, sans-serif" font-size="12" fill="#6c757d">Categoria ▼</text>
  
  <!-- KPI Cards Row -->
  <!-- Saldo Atual -->
  <rect x="40" y="100" width="220" height="120" fill="#ffffff" stroke="#e9ecef" stroke-width="1" rx="8"/>
  <circle cx="80" cy="130" r="15" fill="#28a745"/>
  <text x="110" y="125" font-family="Arial, sans-serif" font-size="12" fill="#6c757d">Saldo Atual</text>
  <text x="110" y="145" font-family="Arial, sans-serif" font-size="20" font-weight="bold" fill="#28a745">R$ 15.420,50</text>
  <text x="110" y="165" font-family="Arial, sans-serif" font-size="10" fill="#28a745">+5.2% vs mês anterior</text>
  
  <!-- Total Entradas -->
  <rect x="280" y="100" width="220" height="120" fill="#ffffff" stroke="#e9ecef" stroke-width="1" rx="8"/>
  <circle cx="320" cy="130" r="15" fill="#28a745"/>
  <text x="350" y="125" font-family="Arial, sans-serif" font-size="12" fill="#6c757d">Entradas no Período</text>
  <text x="350" y="145" font-family="Arial, sans-serif" font-size="20" font-weight="bold" fill="#28a745">R$ 8.500,00</text>
  <text x="350" y="165" font-family="Arial, sans-serif" font-size="10" fill="#28a745">+12.3% vs período anterior</text>
  
  <!-- Total Saídas -->
  <rect x="520" y="100" width="220" height="120" fill="#ffffff" stroke="#e9ecef" stroke-width="1" rx="8"/>
  <circle cx="560" cy="130" r="15" fill="#dc3545"/>
  <text x="590" y="125" font-family="Arial, sans-serif" font-size="12" fill="#6c757d">Saídas no Período</text>
  <text x="590" y="145" font-family="Arial, sans-serif" font-size="20" font-weight="bold" fill="#dc3545">R$ 6.200,00</text>
  <text x="590" y="165" font-family="Arial, sans-serif" font-size="10" fill="#dc3545">-3.1% vs período anterior</text>
  
  <!-- Contas a Pagar -->
  <rect x="760" y="100" width="200" height="120" fill="#ffffff" stroke="#e9ecef" stroke-width="1" rx="8"/>
  <circle cx="800" cy="130" r="15" fill="#ffc107"/>
  <text x="830" y="125" font-family="Arial, sans-serif" font-size="12" fill="#6c757d">A Pagar (7 dias)</text>
  <text x="830" y="145" font-family="Arial, sans-serif" font-size="20" font-weight="bold" fill="#ffc107">R$ 1.850,00</text>
  <text x="830" y="165" font-family="Arial, sans-serif" font-size="10" fill="#6c757d">(5 contas)</text>
  
  <!-- Contas Vencidas -->
  <rect x="980" y="100" width="200" height="120" fill="#ffffff" stroke="#e9ecef" stroke-width="1" rx="8"/>
  <circle cx="1020" cy="130" r="15" fill="#dc3545"/>
  <text x="1050" y="125" font-family="Arial, sans-serif" font-size="12" fill="#6c757d">Contas Vencidas</text>
  <text x="1050" y="145" font-family="Arial, sans-serif" font-size="20" font-weight="bold" fill="#dc3545">R$ 320,00</text>
  <text x="1050" y="165" font-family="Arial, sans-serif" font-size="10" fill="#6c757d">(2 contas)</text>
  
  <!-- Charts Row -->
  <!-- Trend Chart -->
  <rect x="40" y="240" width="560" height="280" fill="#ffffff" stroke="#e9ecef" stroke-width="1" rx="8"/>
  <text x="60" y="265" font-family="Arial, sans-serif" font-size="16" font-weight="bold" fill="#212529">Tendência de Entradas e Saídas</text>
  
  <!-- Chart Area -->
  <rect x="60" y="280" width="520" height="200" fill="#f8f9fa" stroke="#dee2e6" stroke-width="1"/>
  
  <!-- Sample Chart Lines -->
  <polyline points="80,450 150,420 220,400 290,380 350,360 420,340 500,320" 
            fill="none" stroke="#28a745" stroke-width="3"/>
  <polyline points="80,460 150,440 220,450 290,430 350,420 420,410 500,400" 
            fill="none" stroke="#dc3545" stroke-width="3"/>
  
  <!-- Legend -->
  <circle cx="80" cy="500" r="5" fill="#28a745"/>
  <text x="95" y="505" font-family="Arial, sans-serif" font-size="12" fill="#6c757d">Entradas</text>
  <circle cx="180" cy="500" r="5" fill="#dc3545"/>
  <text x="195" y="505" font-family="Arial, sans-serif" font-size="12" fill="#6c757d">Saídas</text>
  
  <!-- Category Distribution Chart -->
  <rect x="620" y="240" width="280" height="280" fill="#ffffff" stroke="#e9ecef" stroke-width="1" rx="8"/>
  <text x="640" y="265" font-family="Arial, sans-serif" font-size="16" font-weight="bold" fill="#212529">Distribuição por Categoria</text>
  
  <!-- Donut Chart -->
  <circle cx="760" cy="380" r="80" fill="none" stroke="#e9ecef" stroke-width="20"/>
  <circle cx="760" cy="380" r="80" fill="none" stroke="#007bff" stroke-width="20" 
          stroke-dasharray="125.6 251.2" transform="rotate(-90 760 380)"/>
  <circle cx="760" cy="380" r="80" fill="none" stroke="#28a745" stroke-width="20" 
          stroke-dasharray="62.8 314" stroke-dashoffset="-125.6" transform="rotate(-90 760 380)"/>
  <circle cx="760" cy="380" r="80" fill="none" stroke="#ffc107" stroke-width="20" 
          stroke-dasharray="31.4 345.4" stroke-dashoffset="-188.4" transform="rotate(-90 760 380)"/>
  
  <!-- Category Legend -->
  <rect x="640" y="480" width="12" height="12" fill="#007bff"/>
  <text x="660" y="491" font-family="Arial, sans-serif" font-size="11" fill="#6c757d">Alimentação (40%)</text>
  <rect x="640" y="500" width="12" height="12" fill="#28a745"/>
  <text x="660" y="511" font-family="Arial, sans-serif" font-size="11" fill="#6c757d">Transporte (20%)</text>
  <rect x="640" y="520" width="12" height="12" fill="#ffc107"/>
  <text x="660" y="531" font-family="Arial, sans-serif" font-size="11" fill="#6c757d">Lazer (10%)</text>
  
  <!-- Account Status Chart -->
  <rect x="920" y="240" width="260" height="280" fill="#ffffff" stroke="#e9ecef" stroke-width="1" rx="8"/>
  <text x="940" y="265" font-family="Arial, sans-serif" font-size="16" font-weight="bold" fill="#212529">Status das Contas</text>
  
  <!-- Bar Chart -->
  <rect x="960" y="300" width="40" height="80" fill="#007bff"/>
  <rect x="1020" y="320" width="40" height="60" fill="#28a745"/>
  <rect x="1080" y="350" width="40" height="30" fill="#dc3545"/>
  
  <!-- Bar Labels -->
  <text x="975" y="395" font-family="Arial, sans-serif" font-size="10" fill="#6c757d">Pendente</text>
  <text x="1040" y="395" font-family="Arial, sans-serif" font-size="10" fill="#6c757d">Paga</text>
  <text x="1095" y="395" font-family="Arial, sans-serif" font-size="10" fill="#6c757d">Vencida</text>
  
  <!-- Tables Row -->
  <!-- Recent Transactions Table -->
  <rect x="40" y="540" width="560" height="240" fill="#ffffff" stroke="#e9ecef" stroke-width="1" rx="8"/>
  <text x="60" y="565" font-family="Arial, sans-serif" font-size="16" font-weight="bold" fill="#212529">Últimas Movimentações</text>
  
  <!-- Table Header -->
  <rect x="60" y="580" width="520" height="30" fill="#f8f9fa" stroke="#dee2e6" stroke-width="1"/>
  <text x="70" y="598" font-family="Arial, sans-serif" font-size="12" font-weight="bold" fill="#495057">Data</text>
  <text x="150" y="598" font-family="Arial, sans-serif" font-size="12" font-weight="bold" fill="#495057">Descrição</text>
  <text x="320" y="598" font-family="Arial, sans-serif" font-size="12" font-weight="bold" fill="#495057">Categoria</text>
  <text x="420" y="598" font-family="Arial, sans-serif" font-size="12" font-weight="bold" fill="#495057">Tipo</text>
  <text x="500" y="598" font-family="Arial, sans-serif" font-size="12" font-weight="bold" fill="#495057">Valor</text>
  
  <!-- Table Rows -->
  <rect x="60" y="610" width="520" height="25" fill="#ffffff"/>
  <text x="70" y="625" font-family="Arial, sans-serif" font-size="11" fill="#6c757d">18/12/24</text>
  <text x="150" y="625" font-family="Arial, sans-serif" font-size="11" fill="#6c757d">Supermercado ABC</text>
  <text x="320" y="625" font-family="Arial, sans-serif" font-size="11" fill="#6c757d">Alimentação</text>
  <text x="420" y="625" font-family="Arial, sans-serif" font-size="11" fill="#dc3545">Saída</text>
  <text x="500" y="625" font-family="Arial, sans-serif" font-size="11" fill="#dc3545">-R$ 245,80</text>
  
  <rect x="60" y="635" width="520" height="25" fill="#f8f9fa"/>
  <text x="70" y="650" font-family="Arial, sans-serif" font-size="11" fill="#6c757d">17/12/24</text>
  <text x="150" y="650" font-family="Arial, sans-serif" font-size="11" fill="#6c757d">Salário Empresa XYZ</text>
  <text x="320" y="650" font-family="Arial, sans-serif" font-size="11" fill="#6c757d">Salário</text>
  <text x="420" y="650" font-family="Arial, sans-serif" font-size="11" fill="#28a745">Entrada</text>
  <text x="500" y="650" font-family="Arial, sans-serif" font-size="11" fill="#28a745">+R$ 5.500,00</text>
  
  <!-- Pagination -->
  <text x="60" y="760" font-family="Arial, sans-serif" font-size="11" fill="#6c757d">Mostrando 1-15 de 247 registros</text>
  <rect x="450" y="745" width="30" height="20" fill="#f8f9fa" stroke="#ced4da" stroke-width="1"/>
  <text x="460" y="757" font-family="Arial, sans-serif" font-size="10" fill="#6c757d">◀</text>
  <rect x="485" y="745" width="20" height="20" fill="#007bff" stroke="#007bff" stroke-width="1"/>
  <text x="492" y="757" font-family="Arial, sans-serif" font-size="10" fill="#ffffff">1</text>
  <rect x="510" y="745" width="30" height="20" fill="#f8f9fa" stroke="#ced4da" stroke-width="1"/>
  <text x="520" y="757" font-family="Arial, sans-serif" font-size="10" fill="#6c757d">▶</text>
  
  <!-- Upcoming Bills Table -->
  <rect x="620" y="540" width="560" height="240" fill="#ffffff" stroke="#e9ecef" stroke-width="1" rx="8"/>
  <text x="640" y="565" font-family="Arial, sans-serif" font-size="16" font-weight="bold" fill="#212529">Próximas Contas a Pagar</text>
  
  <!-- Table Header -->
  <rect x="640" y="580" width="520" height="30" fill="#f8f9fa" stroke="#dee2e6" stroke-width="1"/>
  <text x="650" y="598" font-family="Arial, sans-serif" font-size="12" font-weight="bold" fill="#495057">Vencimento</text>
  <text x="750" y="598" font-family="Arial, sans-serif" font-size="12" font-weight="bold" fill="#495057">Destinatário</text>
  <text x="950" y="598" font-family="Arial, sans-serif" font-size="12" font-weight="bold" fill="#495057">Valor</text>
  <text x="1050" y="598" font-family="Arial, sans-serif" font-size="12" font-weight="bold" fill="#495057">Status</text>
  
  <!-- Table Rows -->
  <rect x="640" y="610" width="520" height="25" fill="#ffffff"/>
  <text x="650" y="625" font-family="Arial, sans-serif" font-size="11" fill="#6c757d">20/12/24</text>
  <text x="750" y="625" font-family="Arial, sans-serif" font-size="11" fill="#6c757d">Energia Elétrica</text>
  <text x="950" y="625" font-family="Arial, sans-serif" font-size="11" fill="#6c757d">R$ 180,50</text>
  <rect x="1050" y="615" width="60" height="15" fill="#ffc107" rx="3"/>
  <text x="1065" y="625" font-family="Arial, sans-serif" font-size="9" fill="#ffffff">Pendente</text>
  
  <rect x="640" y="635" width="520" height="25" fill="#f8f9fa"/>
  <text x="650" y="650" font-family="Arial, sans-serif" font-size="11" fill="#dc3545">15/12/24</text>
  <text x="750" y="650" font-family="Arial, sans-serif" font-size="11" fill="#6c757d">Cartão de Crédito</text>
  <text x="950" y="650" font-family="Arial, sans-serif" font-size="11" fill="#6c757d">R$ 320,00</text>
  <rect x="1050" y="640" width="60" height="15" fill="#dc3545" rx="3"/>
  <text x="1065" y="650" font-family="Arial, sans-serif" font-size="9" fill="#ffffff">Vencida</text>
  
  <!-- Sync Status -->
  <circle cx="1150" cy="30" r="8" fill="#28a745"/>
  <text x="1165" y="35" font-family="Arial, sans-serif" font-size="10" fill="#6c757d">Sincronizado</text>
  <text x="1100" y="50" font-family="Arial, sans-serif" font-size="9" fill="#6c757d">Última atualização: há 1 min</text>
</svg>