<svg width="96" height="96" viewBox="0 0 96 96" fill="none" xmlns="http://www.w3.org/2000/svg">
  <!-- Background -->
  <rect width="96" height="96" rx="16" fill="url(#reportsGradient)" />
  
  <!-- Report Document Icon -->
  <g transform="translate(24, 16)">
    <!-- Document Background -->
    <rect x="0" y="0" width="36" height="48" rx="4" fill="white" opacity="0.9" />
    <rect x="0" y="0" width="36" height="12" rx="4" fill="#10b981" opacity="0.8" />
    
    <!-- Document Lines -->
    <rect x="6" y="18" width="24" height="2" rx="1" fill="#6b7280" opacity="0.6" />
    <rect x="6" y="24" width="18" height="2" rx="1" fill="#6b7280" opacity="0.6" />
    <rect x="6" y="30" width="20" height="2" rx="1" fill="#6b7280" opacity="0.6" />
    
    <!-- Chart in Document -->
    <g transform="translate(6, 36)">
      <rect x="0" y="6" width="3" height="6" rx="1" fill="#10b981" />
      <rect x="6" y="4" width="3" height="8" rx="1" fill="#10b981" />
      <rect x="12" y="2" width="3" height="10" rx="1" fill="#10b981" />
      <rect x="18" y="0" width="3" height="12" rx="1" fill="#10b981" />
    </g>
    
    <!-- Corner Fold -->
    <path d="M30 0 L36 6 L30 6 Z" fill="#e5e7eb" />
  </g>
  
  <defs>
    <linearGradient id="reportsGradient" x1="0%" y1="0%" x2="100%" y2="100%">
      <stop offset="0%" style="stop-color:#10b981;stop-opacity:1" />
      <stop offset="100%" style="stop-color:#059669;stop-opacity:1" />
    </linearGradient>
  </defs>
</svg>